<svg id="Layer_1" data-name="Layer 1" xmlns="http://www.w3.org/2000/svg" viewBox="0 0 720 720"><defs><style>.cls-1{fill:#00aeef;}.cls-2{fill:#494368;}.cls-3{fill:#fc60a8;}</style></defs><title>awesome-particle</title><polygon class="cls-1" points="720 360 528 400.8 501.6 360 528 318.4 720 360"/><polygon class="cls-1" points="360 501.6 400.8 528 360 720 318.4 528 360 501.6"/><polygon class="cls-1" points="360 0 400.8 191.2 360 217.6 318.4 191.2 360 0"/><polygon class="cls-1" points="191.2 318.4 217.6 360 191.2 400.8 0 360 191.2 318.4"/><polygon class="cls-1" points="614.4 104.8 449.6 360 614.4 614.4 360 449.6 104.8 614.4 269.6 360 104.8 104.8 360 269.6 614.4 104.8"/><path class="cls-2" d="M258.2,490.2a13.66,13.66,0,0,1,10.1,4.2,13.82,13.82,0,0,1,4.2,10.1v49.6H221.8a13.66,13.66,0,0,1-10.1-4.2,13.82,13.82,0,0,1-4.2-10.1V516.2h53.1V504.5a2.39,2.39,0,0,0-2.4-2.4H207.5V490.2Zm2.4,52V528.1H219.4v11.7a2.39,2.39,0,0,0,2.4,2.4Zm114.7-52H388l-24,63.9h-9.7l-21.5-47.5-20.3,47.5-.2-.1.1.1h-9.6l-25.1-63.9h12.6l17.3,42.4L326,490.2h13.6l19.5,42.4Zm67.2,0a13.66,13.66,0,0,1,10.1,4.2,13.82,13.82,0,0,1,4.2,10.1v23.6H403.7v11.7a2.39,2.39,0,0,0,2.4,2.4h50.7v11.9H406.1a13.66,13.66,0,0,1-10.1-4.2,13.82,13.82,0,0,1-4.2-10.1V504.5a13.66,13.66,0,0,1,4.2-10.1,13.82,13.82,0,0,1,10.1-4.2Zm-38.8,26h41.2V504.5a2.39,2.39,0,0,0-2.4-2.4H406.1a2.39,2.39,0,0,0-2.4,2.4v11.7Zm129-11.6V507H520.8v-2.4a2.39,2.39,0,0,0-2.4-2.4H482a2.39,2.39,0,0,0-2.4,2.4v9.3a2.39,2.39,0,0,0,2.4,2.4h36.4a13.66,13.66,0,0,1,10.1,4.2,13.82,13.82,0,0,1,4.2,10.1v9.3a13.66,13.66,0,0,1-4.2,10.1,13.82,13.82,0,0,1-10.1,4.2H482a13.66,13.66,0,0,1-10.1-4.2,13.82,13.82,0,0,1-4.2-10.1v-2.4h11.9v2.4a2.39,2.39,0,0,0,2.4,2.4h36.4a2.39,2.39,0,0,0,2.4-2.4v-9.3a2.39,2.39,0,0,0-2.4-2.4H482a13.66,13.66,0,0,1-10.1-4.2,13.82,13.82,0,0,1-4.2-10.1v-9.3a13.66,13.66,0,0,1,4.2-10.1,13.82,13.82,0,0,1,10.1-4.2h36.4a13.66,13.66,0,0,1,10.1,4.2A13.51,13.51,0,0,1,532.7,504.6Zm25.2-14.4h36.4a13.66,13.66,0,0,1,10.1,4.2,13.82,13.82,0,0,1,4.2,10.1v35.3a13.66,13.66,0,0,1-4.2,10.1,13.82,13.82,0,0,1-10.1,4.2H557.9a13.66,13.66,0,0,1-10.1-4.2,13.82,13.82,0,0,1-4.2-10.1V504.5a13.66,13.66,0,0,1,4.2-10.1,13.82,13.82,0,0,1,10.1-4.2Zm36.4,11.9H557.9a2.39,2.39,0,0,0-2.4,2.4v35.3a2.39,2.39,0,0,0,2.4,2.4h36.4a2.39,2.39,0,0,0,2.4-2.4V504.5a2.19,2.19,0,0,0-.7-1.7A2.61,2.61,0,0,0,594.3,502.1Zm107.5-11.9a13.66,13.66,0,0,1,10.1,4.2,13.82,13.82,0,0,1,4.2,10.1v49.6H704.3V504.5a2.19,2.19,0,0,0-.7-1.7,2.41,2.41,0,0,0-1.8-.7H676.6a2.39,2.39,0,0,0-2.4,2.4v49.6H662.3V504.5a2.39,2.39,0,0,0-2.4-2.4H634.6a2.39,2.39,0,0,0-2.4,2.4v49.6H620.3V490.2Zm76.5,0a13.66,13.66,0,0,1,10.1,4.2,13.82,13.82,0,0,1,4.2,10.1v23.6H739.5v11.7a2.39,2.39,0,0,0,2.4,2.4h50.7v11.9H741.9a13.66,13.66,0,0,1-10.1-4.2,13.82,13.82,0,0,1-4.2-10.1V504.5a13.66,13.66,0,0,1,4.2-10.1,13.82,13.82,0,0,1,10.1-4.2Zm-38.8,26h41.2V504.5a2.39,2.39,0,0,0-2.4-2.4H741.9a2.39,2.39,0,0,0-2.4,2.4v11.7Z" transform="translate(-139.4 9.6)"/><path class="cls-3" d="M792.5,258.1l-150-137.6-21.1,23,125,114.6H253.7l125-114.7-21.1-23-150,137.7h-.1v90.7c0,41,39.5,74.4,88,74.4H388c48.5,0,88-33.4,88-74.4V289.2h48v59.6c0,41,39.5,74.4,88,74.4h92.5c48.5,0,88-33.4,88-74.4Z" transform="translate(-139.4 9.6)"/></svg>